<svg id="visual" viewBox="0 0 960 540" width="960" height="540" xmlns="http://www.w3.org/2000/svg" xmlns:xlink="http://www.w3.org/1999/xlink" version="1.1"><rect x="0" y="0" width="960" height="540" fill="#002233"></rect><path d="M0 208L10.7 206.2C21.3 204.3 42.7 200.7 64 202.8C85.3 205 106.7 213 128 225.8C149.3 238.7 170.7 256.3 192 261.7C213.3 267 234.7 260 256 237.3C277.3 214.7 298.7 176.3 320 164.8C341.3 153.3 362.7 168.7 384 209C405.3 249.3 426.7 314.7 448 342.3C469.3 370 490.7 360 512 348.3C533.3 336.7 554.7 323.3 576 311.8C597.3 300.3 618.7 290.7 640 274.3C661.3 258 682.7 235 704 252.7C725.3 270.3 746.7 328.7 768 325.7C789.3 322.7 810.7 258.3 832 245.3C853.3 232.3 874.7 270.7 896 271.7C917.3 272.7 938.7 236.3 949.3 218.2L960 200L960 0L949.3 0C938.7 0 917.3 0 896 0C874.7 0 853.3 0 832 0C810.7 0 789.3 0 768 0C746.7 0 725.3 0 704 0C682.7 0 661.3 0 640 0C618.7 0 597.3 0 576 0C554.7 0 533.3 0 512 0C490.7 0 469.3 0 448 0C426.7 0 405.3 0 384 0C362.7 0 341.3 0 320 0C298.7 0 277.3 0 256 0C234.7 0 213.3 0 192 0C170.7 0 149.3 0 128 0C106.7 0 85.3 0 64 0C42.7 0 21.3 0 10.7 0L0 0Z" fill="#0066FF" stroke-linecap="round" stroke-linejoin="miter"></path></svg>