<svg id="Layer_1" data-name="Layer 1" xmlns="http://www.w3.org/2000/svg" viewBox="0 0 899.27 221.34"><defs><style>.cls-1,.cls-2{fill:#e5ccb1;}.cls-2{font-size:86.29px;font-family:Montserrat-Bold, Montserrat;font-weight:700;}.cls-3{letter-spacing:0em;}.cls-4{letter-spacing:-0.02em;}</style></defs><path class="cls-1" d="M182,48.33H120.17A1.14,1.14,0,0,0,119,49.47v24a1.14,1.14,0,0,0,1.14,1.14h12.15a1.14,1.14,0,0,0,1.14-1.14V63.89a1.14,1.14,0,0,1,1.14-1.14h33a1.14,1.14,0,0,1,1.14,1.14V125a1.14,1.14,0,0,1-2,.81l-18.47-18.48a1.13,1.13,0,0,0-1.61,0l-8.6,8.59a1.15,1.15,0,0,0,0,1.61l17.8,17.8a1.15,1.15,0,0,1-.81,1.95H95.31a1.14,1.14,0,0,1-1.14-1.14V104.25a1.14,1.14,0,0,1,1.14-1.14h9.57A1.14,1.14,0,0,0,106,102V89.83a1.14,1.14,0,0,0-1.14-1.14h-24a1.14,1.14,0,0,0-1.14,1.14v60.79a1.14,1.14,0,0,0,1.14,1.14H182a1.14,1.14,0,0,0,1.14-1.14V49.47A1.14,1.14,0,0,0,182,48.33Z" transform="translate(-79.73 -48.33)"/><path class="cls-1" d="M181.92,166.24H81a1.25,1.25,0,0,0-1.24,1.24v60.59A1.24,1.24,0,0,0,81,229.31h23.82a1.23,1.23,0,0,0,1.23-1.24V216.12a1.23,1.23,0,0,0-1.23-1.23H95.4a1.24,1.24,0,0,1-1.23-1.24V181.91a1.23,1.23,0,0,1,1.23-1.23h59.47a1.23,1.23,0,0,1,.87,2.11l-17.56,17.57a1.24,1.24,0,0,0,0,1.75l8.46,8.45a1.24,1.24,0,0,0,1.75,0l18.24-18.25a1.24,1.24,0,0,1,2.11.88V254a1.25,1.25,0,0,1-1.24,1.24H134.69a1.24,1.24,0,0,1-1.23-1.24v-9.38a1.24,1.24,0,0,0-1.24-1.24h-12a1.24,1.24,0,0,0-1.24,1.24v23.8a1.24,1.24,0,0,0,1.24,1.24h61.65a1.23,1.23,0,0,0,1.24-1.24v-101A1.24,1.24,0,0,0,181.92,166.24Z" transform="translate(-79.73 -48.33)"/><path class="cls-1" d="M298.14,87.63H275a1.56,1.56,0,0,0-1.56,1.56v11.3a1.56,1.56,0,0,0,1.56,1.56h8.73a1.56,1.56,0,0,1,1.56,1.56v32.16a1.56,1.56,0,0,1-1.56,1.56H224a1.56,1.56,0,0,1-1.1-2.66l17.46-17.46a1.56,1.56,0,0,0,0-2.21l-8-8a1.56,1.56,0,0,0-2.21,0l-16.78,16.77a1.56,1.56,0,0,1-2.67-1.1V64.33a1.57,1.57,0,0,1,1.57-1.57h31.08a1.56,1.56,0,0,1,1.56,1.57v8.73a1.56,1.56,0,0,0,1.57,1.56h11.3a1.56,1.56,0,0,0,1.56-1.56V49.89a1.56,1.56,0,0,0-1.56-1.56H197.83a1.56,1.56,0,0,0-1.56,1.56V150.2a1.56,1.56,0,0,0,1.56,1.56H298.14a1.56,1.56,0,0,0,1.56-1.56v-61A1.56,1.56,0,0,0,298.14,87.63Z" transform="translate(-79.73 -48.33)"/><path class="cls-1" d="M298.58,166.24H197.39a1.12,1.12,0,0,0-1.12,1.12V268.55a1.12,1.12,0,0,0,1.12,1.12h60.83a1.12,1.12,0,0,0,1.12-1.12V244.5a1.12,1.12,0,0,0-1.12-1.12H246a1.12,1.12,0,0,0-1.12,1.12v9.61a1.13,1.13,0,0,1-1.12,1.13h-32a1.14,1.14,0,0,1-1.13-1.13V194.26a1.12,1.12,0,0,1,1.92-.79l17.85,17.83a1.11,1.11,0,0,0,1.58,0l8.62-8.62a1.11,1.11,0,0,0,0-1.58l-18.53-18.52a1.12,1.12,0,0,1,.8-1.91h61.21a1.12,1.12,0,0,1,1.12,1.12v33a1.12,1.12,0,0,1-1.12,1.12h-9.61a1.12,1.12,0,0,0-1.12,1.12v12.18a1.12,1.12,0,0,0,1.12,1.12h24a1.12,1.12,0,0,0,1.12-1.12V167.36A1.12,1.12,0,0,0,298.58,166.24Z" transform="translate(-79.73 -48.33)"/><text class="cls-2" transform="translate(275.52 136.72)"><tspan class="cls-3">C</tspan><tspan x="62.13" y="0">antigi </tspan><tspan class="cls-4" x="349.29" y="0">K</tspan><tspan x="411.67" y="0">ulon</tspan></text></svg>